# xmcd
#
# Track frame offsets:
#	150
#	23769
#	43554
#	60204
#	82449
#	104636
#	122697
#	139082
#	152462
#	171535
#	186460
#	197293
#	212270
#
# Disc length: 3065 seconds
#
# Revision: 1
# Processed by: cddbd v1.5.2PL0 Copyright (c) Steve Scherf et al.
# Submitted via: audiograbber 1.83.01
#
DISCID=af0bf70d
DTITLE=Kimmie Rhodes - Lost and Found
DYEAR=2003
DGENRE=Folk/Country
TTITLE0=The Road To Jubilee
TTITLE1=Take Me Down
TTITLE2=Over The Edge
TTITLE3=Catfish Song
TTITLE4=The Past Never Happened
TTITLE5=Heart Of A Believer
TTITLE6=Daddy's Heaven
TTITLE7=War Prayer
TTITLE8=I'm Not An Angel
TTITLE9=Keep Me In Your Grace
TTITLE10=Born In A Barn
TTITLE11=Lines
TTITLE12=Somebody Cares For Me
EXTD=
EXTT0=
EXTT1=
EXTT2=
EXTT3=
EXTT4=
EXTT5=
EXTT6=
EXTT7=
EXTT8=
EXTT9=
EXTT10=
EXTT11=
EXTT12=
PLAYORDER=
